; NON-PLATED HOLES START AT T1
; THROUGH (PLATED) HOLES START AT T100
M48
INCH
T1C0.118110
T100C0.038000
%
T1
X017147Y011044
X017147Y001044
X001147Y011044
X001147Y001044
T100
X001147Y005044
X008147Y007044
X017147Y005044
X012147Y004044
X005147Y004044
X010147Y008044
X001147Y007044
X010147Y005044
X017147Y007044
X009147Y010044
X008147Y006044
X014147Y004044
X013147Y004044
X010147Y007044
X001147Y006044
X008147Y008044
X017147Y006044
X006147Y004044
X008147Y005044
X004147Y004044
X009147Y002044
X003147Y004044
X001147Y008044
X010147Y006044
X017147Y008044
X015147Y004044
T00
M30
