G04 MADE WITH FRITZING*
G04 WWW.FRITZING.ORG*
G04 DOUBLE SIDED*
G04 HOLES PLATED*
G04 CONTOUR ON CENTER OF CONTOUR VECTOR*
%ASAXBY*%
%FSLAX23Y23*%
%MOIN*%
%OFA0B0*%
%SFA1.0B1.0*%
%ADD10R,1.827590X1.208420X1.811590X1.192420*%
%ADD11C,0.008000*%
%ADD12C,0.010000*%
%ADD13C,0.005000*%
%ADD14R,0.001000X0.001000*%
%LNSILK1*%
G90*
G70*
G54D11*
X4Y1204D02*
X1824Y1204D01*
X1824Y4D01*
X4Y4D01*
X4Y1204D01*
D02*
G54D12*
X1665Y854D02*
X1665Y454D01*
D02*
X1665Y454D02*
X1765Y454D01*
D02*
X1765Y454D02*
X1765Y854D01*
D02*
X1765Y854D02*
X1665Y854D01*
G54D13*
D02*
X1665Y819D02*
X1700Y854D01*
G54D12*
D02*
X965Y854D02*
X965Y454D01*
D02*
X965Y454D02*
X1065Y454D01*
D02*
X1065Y454D02*
X1065Y854D01*
D02*
X1065Y854D02*
X965Y854D01*
G54D13*
D02*
X965Y819D02*
X1000Y854D01*
G54D12*
D02*
X1165Y354D02*
X1565Y354D01*
D02*
X1565Y354D02*
X1565Y454D01*
D02*
X1565Y454D02*
X1165Y454D01*
D02*
X1165Y454D02*
X1165Y354D01*
G54D13*
D02*
X1200Y354D02*
X1165Y389D01*
G54D12*
D02*
X265Y354D02*
X665Y354D01*
D02*
X665Y354D02*
X665Y454D01*
D02*
X665Y454D02*
X265Y454D01*
D02*
X265Y454D02*
X265Y354D01*
G54D13*
D02*
X300Y354D02*
X265Y389D01*
G54D12*
D02*
X765Y854D02*
X765Y454D01*
D02*
X765Y454D02*
X865Y454D01*
D02*
X865Y454D02*
X865Y854D01*
D02*
X865Y854D02*
X765Y854D01*
G54D13*
D02*
X765Y819D02*
X800Y854D01*
G54D12*
D02*
X965Y1054D02*
X865Y1054D01*
D02*
X865Y1054D02*
X865Y954D01*
D02*
X865Y954D02*
X965Y954D01*
D02*
X965Y954D02*
X965Y1054D01*
G54D13*
D02*
X930Y1054D02*
X965Y1019D01*
G54D12*
D02*
X965Y254D02*
X865Y254D01*
D02*
X865Y254D02*
X865Y154D01*
D02*
X865Y154D02*
X965Y154D01*
D02*
X965Y154D02*
X965Y254D01*
G54D13*
D02*
X930Y254D02*
X965Y219D01*
G54D12*
D02*
X65Y854D02*
X65Y454D01*
D02*
X65Y454D02*
X165Y454D01*
D02*
X165Y454D02*
X165Y854D01*
D02*
X165Y854D02*
X65Y854D01*
G54D13*
D02*
X65Y819D02*
X100Y854D01*
G54D14*
X1018Y1154D02*
X1020Y1154D01*
X1044Y1154D02*
X1076Y1154D01*
X1017Y1153D02*
X1022Y1153D01*
X1043Y1153D02*
X1076Y1153D01*
X1017Y1152D02*
X1022Y1152D01*
X1043Y1152D02*
X1076Y1152D01*
X1016Y1151D02*
X1022Y1151D01*
X1043Y1151D02*
X1076Y1151D01*
X1016Y1150D02*
X1022Y1150D01*
X1042Y1150D02*
X1076Y1150D01*
X1016Y1149D02*
X1022Y1149D01*
X1042Y1149D02*
X1076Y1149D01*
X1016Y1148D02*
X1022Y1148D01*
X1042Y1148D02*
X1076Y1148D01*
X1016Y1147D02*
X1022Y1147D01*
X1043Y1147D02*
X1048Y1147D01*
X1070Y1147D02*
X1076Y1147D01*
X1016Y1146D02*
X1022Y1146D01*
X1043Y1146D02*
X1048Y1146D01*
X1070Y1146D02*
X1076Y1146D01*
X1016Y1145D02*
X1022Y1145D01*
X1044Y1145D02*
X1047Y1145D01*
X1070Y1145D02*
X1076Y1145D01*
X1016Y1144D02*
X1022Y1144D01*
X1070Y1144D02*
X1076Y1144D01*
X1016Y1143D02*
X1022Y1143D01*
X1070Y1143D02*
X1076Y1143D01*
X1016Y1142D02*
X1022Y1142D01*
X1070Y1142D02*
X1076Y1142D01*
X1016Y1141D02*
X1022Y1141D01*
X1070Y1141D02*
X1076Y1141D01*
X1016Y1140D02*
X1022Y1140D01*
X1070Y1140D02*
X1076Y1140D01*
X1016Y1139D02*
X1022Y1139D01*
X1070Y1139D02*
X1076Y1139D01*
X1016Y1138D02*
X1022Y1138D01*
X1070Y1138D02*
X1076Y1138D01*
X1016Y1137D02*
X1022Y1137D01*
X1070Y1137D02*
X1076Y1137D01*
X1016Y1136D02*
X1022Y1136D01*
X1070Y1136D02*
X1076Y1136D01*
X1016Y1135D02*
X1022Y1135D01*
X1070Y1135D02*
X1076Y1135D01*
X1016Y1134D02*
X1022Y1134D01*
X1069Y1134D02*
X1076Y1134D01*
X1016Y1133D02*
X1022Y1133D01*
X1068Y1133D02*
X1076Y1133D01*
X1016Y1132D02*
X1022Y1132D01*
X1067Y1132D02*
X1076Y1132D01*
X1016Y1131D02*
X1022Y1131D01*
X1066Y1131D02*
X1075Y1131D01*
X1016Y1130D02*
X1022Y1130D01*
X1064Y1130D02*
X1074Y1130D01*
X1016Y1129D02*
X1022Y1129D01*
X1063Y1129D02*
X1073Y1129D01*
X1016Y1128D02*
X1022Y1128D01*
X1062Y1128D02*
X1072Y1128D01*
X1016Y1127D02*
X1022Y1127D01*
X1061Y1127D02*
X1071Y1127D01*
X1016Y1126D02*
X1022Y1126D01*
X1060Y1126D02*
X1069Y1126D01*
X1016Y1125D02*
X1022Y1125D01*
X1058Y1125D02*
X1068Y1125D01*
X997Y1124D02*
X1001Y1124D01*
X1016Y1124D02*
X1022Y1124D01*
X1057Y1124D02*
X1067Y1124D01*
X996Y1123D02*
X1001Y1123D01*
X1016Y1123D02*
X1022Y1123D01*
X1057Y1123D02*
X1066Y1123D01*
X996Y1122D02*
X1002Y1122D01*
X1016Y1122D02*
X1022Y1122D01*
X1056Y1122D02*
X1065Y1122D01*
X996Y1121D02*
X1002Y1121D01*
X1016Y1121D02*
X1022Y1121D01*
X1056Y1121D02*
X1064Y1121D01*
X996Y1120D02*
X1002Y1120D01*
X1016Y1120D02*
X1022Y1120D01*
X1056Y1120D02*
X1063Y1120D01*
X996Y1119D02*
X1002Y1119D01*
X1016Y1119D02*
X1022Y1119D01*
X1056Y1119D02*
X1062Y1119D01*
X996Y1118D02*
X1002Y1118D01*
X1016Y1118D02*
X1022Y1118D01*
X1056Y1118D02*
X1062Y1118D01*
X996Y1117D02*
X1002Y1117D01*
X1016Y1117D02*
X1022Y1117D01*
X1056Y1117D02*
X1062Y1117D01*
X996Y1116D02*
X1002Y1116D01*
X1016Y1116D02*
X1022Y1116D01*
X1056Y1116D02*
X1062Y1116D01*
X996Y1115D02*
X1002Y1115D01*
X1016Y1115D02*
X1022Y1115D01*
X1056Y1115D02*
X1062Y1115D01*
X996Y1114D02*
X1002Y1114D01*
X1016Y1114D02*
X1022Y1114D01*
X1056Y1114D02*
X1062Y1114D01*
X996Y1113D02*
X1002Y1113D01*
X1016Y1113D02*
X1022Y1113D01*
X1056Y1113D02*
X1062Y1113D01*
X996Y1112D02*
X1002Y1112D01*
X1016Y1112D02*
X1022Y1112D01*
X1056Y1112D02*
X1062Y1112D01*
X996Y1111D02*
X1002Y1111D01*
X1016Y1111D02*
X1022Y1111D01*
X1056Y1111D02*
X1062Y1111D01*
X996Y1110D02*
X1002Y1110D01*
X1016Y1110D02*
X1022Y1110D01*
X1056Y1110D02*
X1062Y1110D01*
X996Y1109D02*
X1002Y1109D01*
X1016Y1109D02*
X1022Y1109D01*
X1056Y1109D02*
X1062Y1109D01*
X996Y1108D02*
X1003Y1108D01*
X1015Y1108D02*
X1022Y1108D01*
X1056Y1108D02*
X1062Y1108D01*
X996Y1107D02*
X1022Y1107D01*
X1056Y1107D02*
X1062Y1107D01*
X997Y1106D02*
X1021Y1106D01*
X1056Y1106D02*
X1062Y1106D01*
X997Y1105D02*
X1021Y1105D01*
X1056Y1105D02*
X1062Y1105D01*
X998Y1104D02*
X1020Y1104D01*
X1056Y1104D02*
X1062Y1104D01*
X999Y1103D02*
X1019Y1103D01*
X1056Y1103D02*
X1062Y1103D01*
X1000Y1102D02*
X1018Y1102D01*
X1057Y1102D02*
X1062Y1102D01*
X1002Y1101D02*
X1016Y1101D01*
X1058Y1101D02*
X1061Y1101D01*
X1722Y965D02*
X1724Y965D01*
X1748Y965D02*
X1754Y965D01*
X1721Y964D02*
X1725Y964D01*
X1747Y964D02*
X1755Y964D01*
X1720Y963D02*
X1726Y963D01*
X1746Y963D02*
X1755Y963D01*
X1720Y962D02*
X1726Y962D01*
X1746Y962D02*
X1755Y962D01*
X1720Y961D02*
X1726Y961D01*
X1746Y961D02*
X1755Y961D01*
X1720Y960D02*
X1726Y960D01*
X1746Y960D02*
X1755Y960D01*
X1720Y959D02*
X1726Y959D01*
X1746Y959D02*
X1753Y959D01*
X1720Y958D02*
X1726Y958D01*
X1746Y958D02*
X1752Y958D01*
X1720Y957D02*
X1726Y957D01*
X1746Y957D02*
X1752Y957D01*
X1720Y956D02*
X1726Y956D01*
X1746Y956D02*
X1752Y956D01*
X1720Y955D02*
X1726Y955D01*
X1746Y955D02*
X1752Y955D01*
X1118Y954D02*
X1120Y954D01*
X1146Y954D02*
X1148Y954D01*
X1720Y954D02*
X1726Y954D01*
X1746Y954D02*
X1752Y954D01*
X1117Y953D02*
X1122Y953D01*
X1145Y953D02*
X1149Y953D01*
X1720Y953D02*
X1726Y953D01*
X1746Y953D02*
X1752Y953D01*
X1117Y952D02*
X1122Y952D01*
X1144Y952D02*
X1150Y952D01*
X1720Y952D02*
X1726Y952D01*
X1746Y952D02*
X1752Y952D01*
X1116Y951D02*
X1122Y951D01*
X1144Y951D02*
X1150Y951D01*
X1720Y951D02*
X1726Y951D01*
X1746Y951D02*
X1752Y951D01*
X1116Y950D02*
X1122Y950D01*
X1144Y950D02*
X1150Y950D01*
X1720Y950D02*
X1726Y950D01*
X1746Y950D02*
X1752Y950D01*
X1116Y949D02*
X1122Y949D01*
X1144Y949D02*
X1150Y949D01*
X1720Y949D02*
X1726Y949D01*
X1746Y949D02*
X1752Y949D01*
X1116Y948D02*
X1122Y948D01*
X1144Y948D02*
X1150Y948D01*
X1167Y948D02*
X1169Y948D01*
X1720Y948D02*
X1726Y948D01*
X1746Y948D02*
X1752Y948D01*
X1116Y947D02*
X1122Y947D01*
X1144Y947D02*
X1150Y947D01*
X1165Y947D02*
X1170Y947D01*
X1720Y947D02*
X1726Y947D01*
X1746Y947D02*
X1752Y947D01*
X1116Y946D02*
X1122Y946D01*
X1144Y946D02*
X1150Y946D01*
X1165Y946D02*
X1171Y946D01*
X1720Y946D02*
X1726Y946D01*
X1746Y946D02*
X1752Y946D01*
X1116Y945D02*
X1122Y945D01*
X1144Y945D02*
X1150Y945D01*
X1165Y945D02*
X1171Y945D01*
X1720Y945D02*
X1726Y945D01*
X1746Y945D02*
X1752Y945D01*
X1116Y944D02*
X1122Y944D01*
X1144Y944D02*
X1150Y944D01*
X1165Y944D02*
X1171Y944D01*
X1720Y944D02*
X1726Y944D01*
X1746Y944D02*
X1752Y944D01*
X1116Y943D02*
X1122Y943D01*
X1144Y943D02*
X1150Y943D01*
X1165Y943D02*
X1171Y943D01*
X1720Y943D02*
X1726Y943D01*
X1746Y943D02*
X1752Y943D01*
X1116Y942D02*
X1122Y942D01*
X1144Y942D02*
X1150Y942D01*
X1165Y942D02*
X1171Y942D01*
X1720Y942D02*
X1726Y942D01*
X1746Y942D02*
X1752Y942D01*
X1116Y941D02*
X1122Y941D01*
X1144Y941D02*
X1150Y941D01*
X1165Y941D02*
X1171Y941D01*
X1720Y941D02*
X1726Y941D01*
X1746Y941D02*
X1752Y941D01*
X1116Y940D02*
X1122Y940D01*
X1144Y940D02*
X1150Y940D01*
X1165Y940D02*
X1171Y940D01*
X1720Y940D02*
X1726Y940D01*
X1746Y940D02*
X1752Y940D01*
X1116Y939D02*
X1122Y939D01*
X1144Y939D02*
X1150Y939D01*
X1165Y939D02*
X1171Y939D01*
X1720Y939D02*
X1726Y939D01*
X1746Y939D02*
X1752Y939D01*
X1116Y938D02*
X1122Y938D01*
X1144Y938D02*
X1150Y938D01*
X1165Y938D02*
X1171Y938D01*
X1720Y938D02*
X1726Y938D01*
X1746Y938D02*
X1752Y938D01*
X1116Y937D02*
X1122Y937D01*
X1144Y937D02*
X1150Y937D01*
X1165Y937D02*
X1171Y937D01*
X1720Y937D02*
X1726Y937D01*
X1746Y937D02*
X1752Y937D01*
X1116Y936D02*
X1122Y936D01*
X1144Y936D02*
X1150Y936D01*
X1165Y936D02*
X1171Y936D01*
X1702Y936D02*
X1702Y936D01*
X1720Y936D02*
X1726Y936D01*
X1746Y936D02*
X1777Y936D01*
X1116Y935D02*
X1122Y935D01*
X1144Y935D02*
X1150Y935D01*
X1165Y935D02*
X1171Y935D01*
X1700Y935D02*
X1704Y935D01*
X1720Y935D02*
X1726Y935D01*
X1746Y935D02*
X1779Y935D01*
X1116Y934D02*
X1122Y934D01*
X1144Y934D02*
X1150Y934D01*
X1165Y934D02*
X1171Y934D01*
X1700Y934D02*
X1705Y934D01*
X1720Y934D02*
X1726Y934D01*
X1746Y934D02*
X1779Y934D01*
X1116Y933D02*
X1122Y933D01*
X1144Y933D02*
X1150Y933D01*
X1165Y933D02*
X1171Y933D01*
X1699Y933D02*
X1705Y933D01*
X1720Y933D02*
X1726Y933D01*
X1746Y933D02*
X1779Y933D01*
X1116Y932D02*
X1122Y932D01*
X1144Y932D02*
X1150Y932D01*
X1165Y932D02*
X1171Y932D01*
X1699Y932D02*
X1705Y932D01*
X1720Y932D02*
X1726Y932D01*
X1746Y932D02*
X1780Y932D01*
X1116Y931D02*
X1122Y931D01*
X1144Y931D02*
X1150Y931D01*
X1165Y931D02*
X1171Y931D01*
X1699Y931D02*
X1705Y931D01*
X1720Y931D02*
X1726Y931D01*
X1746Y931D02*
X1780Y931D01*
X1116Y930D02*
X1122Y930D01*
X1144Y930D02*
X1150Y930D01*
X1165Y930D02*
X1171Y930D01*
X1699Y930D02*
X1705Y930D01*
X1720Y930D02*
X1726Y930D01*
X1746Y930D02*
X1780Y930D01*
X1116Y929D02*
X1122Y929D01*
X1144Y929D02*
X1150Y929D01*
X1165Y929D02*
X1171Y929D01*
X1699Y929D02*
X1705Y929D01*
X1720Y929D02*
X1726Y929D01*
X1746Y929D02*
X1752Y929D01*
X1773Y929D02*
X1780Y929D01*
X1116Y928D02*
X1122Y928D01*
X1144Y928D02*
X1150Y928D01*
X1165Y928D02*
X1171Y928D01*
X1699Y928D02*
X1705Y928D01*
X1720Y928D02*
X1726Y928D01*
X1746Y928D02*
X1752Y928D01*
X1774Y928D02*
X1780Y928D01*
X1116Y927D02*
X1122Y927D01*
X1144Y927D02*
X1150Y927D01*
X1165Y927D02*
X1171Y927D01*
X1699Y927D02*
X1705Y927D01*
X1720Y927D02*
X1726Y927D01*
X1746Y927D02*
X1752Y927D01*
X1774Y927D02*
X1780Y927D01*
X1116Y926D02*
X1122Y926D01*
X1144Y926D02*
X1150Y926D01*
X1165Y926D02*
X1171Y926D01*
X1699Y926D02*
X1705Y926D01*
X1720Y926D02*
X1726Y926D01*
X1746Y926D02*
X1752Y926D01*
X1774Y926D02*
X1780Y926D01*
X1116Y925D02*
X1122Y925D01*
X1144Y925D02*
X1171Y925D01*
X1699Y925D02*
X1705Y925D01*
X1720Y925D02*
X1726Y925D01*
X1746Y925D02*
X1752Y925D01*
X1774Y925D02*
X1780Y925D01*
X1097Y924D02*
X1101Y924D01*
X1116Y924D02*
X1122Y924D01*
X1144Y924D02*
X1173Y924D01*
X1699Y924D02*
X1705Y924D01*
X1720Y924D02*
X1726Y924D01*
X1746Y924D02*
X1752Y924D01*
X1774Y924D02*
X1780Y924D01*
X1096Y923D02*
X1101Y923D01*
X1116Y923D02*
X1122Y923D01*
X1144Y923D02*
X1174Y923D01*
X1699Y923D02*
X1705Y923D01*
X1720Y923D02*
X1726Y923D01*
X1746Y923D02*
X1752Y923D01*
X1774Y923D02*
X1780Y923D01*
X1096Y922D02*
X1102Y922D01*
X1116Y922D02*
X1122Y922D01*
X1144Y922D02*
X1174Y922D01*
X1699Y922D02*
X1705Y922D01*
X1720Y922D02*
X1726Y922D01*
X1746Y922D02*
X1752Y922D01*
X1774Y922D02*
X1780Y922D01*
X1096Y921D02*
X1102Y921D01*
X1116Y921D02*
X1122Y921D01*
X1144Y921D02*
X1174Y921D01*
X1699Y921D02*
X1705Y921D01*
X1720Y921D02*
X1726Y921D01*
X1746Y921D02*
X1752Y921D01*
X1774Y921D02*
X1780Y921D01*
X1096Y920D02*
X1102Y920D01*
X1116Y920D02*
X1122Y920D01*
X1144Y920D02*
X1174Y920D01*
X1699Y920D02*
X1706Y920D01*
X1719Y920D02*
X1726Y920D01*
X1746Y920D02*
X1752Y920D01*
X1774Y920D02*
X1780Y920D01*
X1096Y919D02*
X1102Y919D01*
X1116Y919D02*
X1122Y919D01*
X1144Y919D02*
X1173Y919D01*
X1700Y919D02*
X1707Y919D01*
X1718Y919D02*
X1725Y919D01*
X1746Y919D02*
X1752Y919D01*
X1774Y919D02*
X1780Y919D01*
X1096Y918D02*
X1102Y918D01*
X1116Y918D02*
X1122Y918D01*
X1164Y918D02*
X1171Y918D01*
X1700Y918D02*
X1725Y918D01*
X1746Y918D02*
X1780Y918D01*
X1096Y917D02*
X1102Y917D01*
X1116Y917D02*
X1122Y917D01*
X1165Y917D02*
X1171Y917D01*
X1700Y917D02*
X1725Y917D01*
X1746Y917D02*
X1780Y917D01*
X1096Y916D02*
X1102Y916D01*
X1116Y916D02*
X1122Y916D01*
X1165Y916D02*
X1171Y916D01*
X1701Y916D02*
X1724Y916D01*
X1746Y916D02*
X1780Y916D01*
X1096Y915D02*
X1102Y915D01*
X1116Y915D02*
X1122Y915D01*
X1165Y915D02*
X1171Y915D01*
X1702Y915D02*
X1723Y915D01*
X1746Y915D02*
X1780Y915D01*
X1096Y914D02*
X1102Y914D01*
X1116Y914D02*
X1122Y914D01*
X1165Y914D02*
X1171Y914D01*
X1703Y914D02*
X1722Y914D01*
X1746Y914D02*
X1779Y914D01*
X1096Y913D02*
X1102Y913D01*
X1116Y913D02*
X1122Y913D01*
X1165Y913D02*
X1171Y913D01*
X1704Y913D02*
X1721Y913D01*
X1747Y913D02*
X1779Y913D01*
X657Y912D02*
X660Y912D01*
X683Y912D02*
X711Y912D01*
X1096Y912D02*
X1102Y912D01*
X1116Y912D02*
X1122Y912D01*
X1165Y912D02*
X1171Y912D01*
X1706Y912D02*
X1719Y912D01*
X1748Y912D02*
X1778Y912D01*
X656Y911D02*
X661Y911D01*
X682Y911D02*
X712Y911D01*
X1096Y911D02*
X1102Y911D01*
X1116Y911D02*
X1122Y911D01*
X1165Y911D02*
X1171Y911D01*
X656Y910D02*
X661Y910D01*
X682Y910D02*
X713Y910D01*
X1096Y910D02*
X1102Y910D01*
X1116Y910D02*
X1122Y910D01*
X1165Y910D02*
X1171Y910D01*
X655Y909D02*
X661Y909D01*
X682Y909D02*
X714Y909D01*
X1096Y909D02*
X1102Y909D01*
X1116Y909D02*
X1122Y909D01*
X1165Y909D02*
X1171Y909D01*
X655Y908D02*
X661Y908D01*
X682Y908D02*
X715Y908D01*
X1096Y908D02*
X1103Y908D01*
X1115Y908D02*
X1122Y908D01*
X1165Y908D02*
X1171Y908D01*
X655Y907D02*
X661Y907D01*
X682Y907D02*
X715Y907D01*
X1096Y907D02*
X1122Y907D01*
X1165Y907D02*
X1171Y907D01*
X655Y906D02*
X661Y906D01*
X683Y906D02*
X715Y906D01*
X1097Y906D02*
X1121Y906D01*
X1165Y906D02*
X1171Y906D01*
X655Y905D02*
X661Y905D01*
X709Y905D02*
X715Y905D01*
X1097Y905D02*
X1121Y905D01*
X1165Y905D02*
X1171Y905D01*
X655Y904D02*
X661Y904D01*
X709Y904D02*
X715Y904D01*
X1098Y904D02*
X1120Y904D01*
X1165Y904D02*
X1171Y904D01*
X655Y903D02*
X661Y903D01*
X709Y903D02*
X715Y903D01*
X1099Y903D02*
X1119Y903D01*
X1165Y903D02*
X1171Y903D01*
X655Y902D02*
X661Y902D01*
X709Y902D02*
X715Y902D01*
X1101Y902D02*
X1117Y902D01*
X1165Y902D02*
X1170Y902D01*
X655Y901D02*
X661Y901D01*
X709Y901D02*
X715Y901D01*
X1103Y901D02*
X1116Y901D01*
X1166Y901D02*
X1169Y901D01*
X655Y900D02*
X661Y900D01*
X709Y900D02*
X715Y900D01*
X655Y899D02*
X661Y899D01*
X709Y899D02*
X715Y899D01*
X655Y898D02*
X661Y898D01*
X709Y898D02*
X715Y898D01*
X655Y897D02*
X661Y897D01*
X709Y897D02*
X715Y897D01*
X655Y896D02*
X661Y896D01*
X709Y896D02*
X715Y896D01*
X655Y895D02*
X661Y895D01*
X709Y895D02*
X715Y895D01*
X655Y894D02*
X661Y894D01*
X709Y894D02*
X715Y894D01*
X655Y893D02*
X661Y893D01*
X709Y893D02*
X715Y893D01*
X655Y892D02*
X661Y892D01*
X709Y892D02*
X715Y892D01*
X655Y891D02*
X661Y891D01*
X709Y891D02*
X715Y891D01*
X655Y890D02*
X661Y890D01*
X708Y890D02*
X715Y890D01*
X655Y889D02*
X661Y889D01*
X692Y889D02*
X714Y889D01*
X655Y888D02*
X661Y888D01*
X690Y888D02*
X714Y888D01*
X655Y887D02*
X661Y887D01*
X689Y887D02*
X714Y887D01*
X655Y886D02*
X661Y886D01*
X689Y886D02*
X713Y886D01*
X655Y885D02*
X661Y885D01*
X688Y885D02*
X713Y885D01*
X655Y884D02*
X661Y884D01*
X689Y884D02*
X713Y884D01*
X638Y883D02*
X638Y883D01*
X655Y883D02*
X661Y883D01*
X689Y883D02*
X714Y883D01*
X636Y882D02*
X640Y882D01*
X655Y882D02*
X661Y882D01*
X692Y882D02*
X714Y882D01*
X635Y881D02*
X640Y881D01*
X655Y881D02*
X661Y881D01*
X708Y881D02*
X715Y881D01*
X635Y880D02*
X641Y880D01*
X655Y880D02*
X661Y880D01*
X709Y880D02*
X715Y880D01*
X635Y879D02*
X641Y879D01*
X655Y879D02*
X661Y879D01*
X709Y879D02*
X715Y879D01*
X635Y878D02*
X641Y878D01*
X655Y878D02*
X661Y878D01*
X709Y878D02*
X715Y878D01*
X635Y877D02*
X641Y877D01*
X655Y877D02*
X661Y877D01*
X709Y877D02*
X715Y877D01*
X635Y876D02*
X641Y876D01*
X655Y876D02*
X661Y876D01*
X709Y876D02*
X715Y876D01*
X635Y875D02*
X641Y875D01*
X655Y875D02*
X661Y875D01*
X709Y875D02*
X715Y875D01*
X635Y874D02*
X641Y874D01*
X655Y874D02*
X661Y874D01*
X709Y874D02*
X715Y874D01*
X635Y873D02*
X641Y873D01*
X655Y873D02*
X661Y873D01*
X709Y873D02*
X715Y873D01*
X635Y872D02*
X641Y872D01*
X655Y872D02*
X661Y872D01*
X709Y872D02*
X715Y872D01*
X635Y871D02*
X641Y871D01*
X655Y871D02*
X661Y871D01*
X709Y871D02*
X715Y871D01*
X635Y870D02*
X641Y870D01*
X655Y870D02*
X661Y870D01*
X709Y870D02*
X715Y870D01*
X635Y869D02*
X641Y869D01*
X655Y869D02*
X661Y869D01*
X709Y869D02*
X715Y869D01*
X635Y868D02*
X641Y868D01*
X655Y868D02*
X661Y868D01*
X709Y868D02*
X715Y868D01*
X635Y867D02*
X641Y867D01*
X655Y867D02*
X661Y867D01*
X709Y867D02*
X715Y867D01*
X635Y866D02*
X642Y866D01*
X654Y866D02*
X661Y866D01*
X709Y866D02*
X715Y866D01*
X635Y865D02*
X661Y865D01*
X684Y865D02*
X715Y865D01*
X636Y864D02*
X660Y864D01*
X682Y864D02*
X715Y864D01*
X637Y863D02*
X660Y863D01*
X682Y863D02*
X715Y863D01*
X637Y862D02*
X659Y862D01*
X682Y862D02*
X714Y862D01*
X638Y861D02*
X658Y861D01*
X682Y861D02*
X713Y861D01*
X640Y860D02*
X656Y860D01*
X682Y860D02*
X712Y860D01*
X642Y859D02*
X654Y859D01*
X683Y859D02*
X711Y859D01*
X234Y844D02*
X238Y844D01*
X266Y844D02*
X291Y844D01*
X233Y843D02*
X239Y843D01*
X266Y843D02*
X292Y843D01*
X233Y842D02*
X239Y842D01*
X266Y842D02*
X293Y842D01*
X233Y841D02*
X239Y841D01*
X266Y841D02*
X293Y841D01*
X233Y840D02*
X239Y840D01*
X266Y840D02*
X292Y840D01*
X233Y839D02*
X239Y839D01*
X266Y839D02*
X292Y839D01*
X233Y838D02*
X239Y838D01*
X266Y838D02*
X289Y838D01*
X233Y837D02*
X239Y837D01*
X266Y837D02*
X272Y837D01*
X233Y836D02*
X239Y836D01*
X266Y836D02*
X272Y836D01*
X233Y835D02*
X239Y835D01*
X266Y835D02*
X272Y835D01*
X233Y834D02*
X239Y834D01*
X266Y834D02*
X272Y834D01*
X233Y833D02*
X239Y833D01*
X266Y833D02*
X272Y833D01*
X233Y832D02*
X239Y832D01*
X266Y832D02*
X272Y832D01*
X233Y831D02*
X239Y831D01*
X266Y831D02*
X272Y831D01*
X233Y830D02*
X239Y830D01*
X266Y830D02*
X272Y830D01*
X233Y829D02*
X239Y829D01*
X266Y829D02*
X272Y829D01*
X233Y828D02*
X239Y828D01*
X266Y828D02*
X272Y828D01*
X233Y827D02*
X239Y827D01*
X266Y827D02*
X272Y827D01*
X233Y826D02*
X239Y826D01*
X266Y826D02*
X272Y826D01*
X233Y825D02*
X239Y825D01*
X266Y825D02*
X272Y825D01*
X233Y824D02*
X239Y824D01*
X266Y824D02*
X272Y824D01*
X233Y823D02*
X239Y823D01*
X266Y823D02*
X272Y823D01*
X233Y822D02*
X239Y822D01*
X266Y822D02*
X272Y822D01*
X233Y821D02*
X239Y821D01*
X266Y821D02*
X288Y821D01*
X233Y820D02*
X239Y820D01*
X266Y820D02*
X290Y820D01*
X233Y819D02*
X239Y819D01*
X266Y819D02*
X291Y819D01*
X233Y818D02*
X239Y818D01*
X266Y818D02*
X292Y818D01*
X233Y817D02*
X239Y817D01*
X266Y817D02*
X292Y817D01*
X233Y816D02*
X239Y816D01*
X266Y816D02*
X292Y816D01*
X214Y815D02*
X217Y815D01*
X233Y815D02*
X239Y815D01*
X266Y815D02*
X293Y815D01*
X213Y814D02*
X218Y814D01*
X233Y814D02*
X239Y814D01*
X287Y814D02*
X293Y814D01*
X212Y813D02*
X218Y813D01*
X233Y813D02*
X239Y813D01*
X287Y813D02*
X293Y813D01*
X212Y812D02*
X218Y812D01*
X233Y812D02*
X239Y812D01*
X287Y812D02*
X293Y812D01*
X212Y811D02*
X218Y811D01*
X233Y811D02*
X239Y811D01*
X287Y811D02*
X293Y811D01*
X212Y810D02*
X218Y810D01*
X233Y810D02*
X239Y810D01*
X287Y810D02*
X293Y810D01*
X212Y809D02*
X218Y809D01*
X233Y809D02*
X239Y809D01*
X287Y809D02*
X293Y809D01*
X212Y808D02*
X218Y808D01*
X233Y808D02*
X239Y808D01*
X287Y808D02*
X293Y808D01*
X212Y807D02*
X218Y807D01*
X233Y807D02*
X239Y807D01*
X287Y807D02*
X293Y807D01*
X212Y806D02*
X218Y806D01*
X233Y806D02*
X239Y806D01*
X287Y806D02*
X293Y806D01*
X212Y805D02*
X218Y805D01*
X233Y805D02*
X239Y805D01*
X287Y805D02*
X293Y805D01*
X212Y804D02*
X218Y804D01*
X233Y804D02*
X239Y804D01*
X287Y804D02*
X293Y804D01*
X212Y803D02*
X218Y803D01*
X233Y803D02*
X239Y803D01*
X287Y803D02*
X293Y803D01*
X212Y802D02*
X218Y802D01*
X233Y802D02*
X239Y802D01*
X287Y802D02*
X293Y802D01*
X212Y801D02*
X218Y801D01*
X233Y801D02*
X239Y801D01*
X287Y801D02*
X293Y801D01*
X212Y800D02*
X219Y800D01*
X233Y800D02*
X239Y800D01*
X260Y800D02*
X264Y800D01*
X287Y800D02*
X293Y800D01*
X213Y799D02*
X219Y799D01*
X232Y799D02*
X239Y799D01*
X260Y799D02*
X266Y799D01*
X287Y799D02*
X293Y799D01*
X213Y798D02*
X221Y798D01*
X230Y798D02*
X238Y798D01*
X259Y798D02*
X269Y798D01*
X286Y798D02*
X293Y798D01*
X213Y797D02*
X238Y797D01*
X259Y797D02*
X293Y797D01*
X214Y796D02*
X237Y796D01*
X259Y796D02*
X292Y796D01*
X214Y795D02*
X237Y795D01*
X260Y795D02*
X292Y795D01*
X215Y794D02*
X236Y794D01*
X261Y794D02*
X291Y794D01*
X216Y793D02*
X235Y793D01*
X263Y793D02*
X291Y793D01*
X218Y792D02*
X233Y792D01*
X265Y792D02*
X289Y792D01*
X221Y791D02*
X230Y791D01*
X269Y791D02*
X287Y791D01*
X1202Y321D02*
X1251Y321D01*
X368Y320D02*
X388Y320D01*
X1200Y320D02*
X1252Y320D01*
X366Y319D02*
X390Y319D01*
X1200Y319D02*
X1253Y319D01*
X365Y318D02*
X391Y318D01*
X1200Y318D02*
X1253Y318D01*
X364Y317D02*
X392Y317D01*
X1200Y317D02*
X1253Y317D01*
X364Y316D02*
X392Y316D01*
X1200Y316D02*
X1253Y316D01*
X363Y315D02*
X393Y315D01*
X1200Y315D02*
X1253Y315D01*
X363Y314D02*
X393Y314D01*
X1200Y314D02*
X1206Y314D01*
X1217Y314D02*
X1223Y314D01*
X1247Y314D02*
X1253Y314D01*
X342Y313D02*
X369Y313D01*
X387Y313D02*
X393Y313D01*
X1200Y313D02*
X1206Y313D01*
X1217Y313D02*
X1223Y313D01*
X1247Y313D02*
X1252Y313D01*
X340Y312D02*
X369Y312D01*
X387Y312D02*
X393Y312D01*
X1200Y312D02*
X1206Y312D01*
X1217Y312D02*
X1223Y312D01*
X1248Y312D02*
X1252Y312D01*
X340Y311D02*
X369Y311D01*
X387Y311D02*
X393Y311D01*
X1200Y311D02*
X1206Y311D01*
X1217Y311D02*
X1223Y311D01*
X340Y310D02*
X369Y310D01*
X387Y310D02*
X393Y310D01*
X1200Y310D02*
X1206Y310D01*
X1217Y310D02*
X1223Y310D01*
X340Y309D02*
X369Y309D01*
X387Y309D02*
X393Y309D01*
X1200Y309D02*
X1206Y309D01*
X1217Y309D02*
X1223Y309D01*
X340Y308D02*
X369Y308D01*
X387Y308D02*
X393Y308D01*
X1200Y308D02*
X1206Y308D01*
X1217Y308D02*
X1223Y308D01*
X340Y307D02*
X369Y307D01*
X387Y307D02*
X393Y307D01*
X1200Y307D02*
X1206Y307D01*
X1217Y307D02*
X1223Y307D01*
X340Y306D02*
X346Y306D01*
X363Y306D02*
X369Y306D01*
X387Y306D02*
X393Y306D01*
X1200Y306D02*
X1206Y306D01*
X1217Y306D02*
X1223Y306D01*
X340Y305D02*
X346Y305D01*
X363Y305D02*
X369Y305D01*
X387Y305D02*
X393Y305D01*
X1200Y305D02*
X1206Y305D01*
X1217Y305D02*
X1223Y305D01*
X340Y304D02*
X346Y304D01*
X363Y304D02*
X369Y304D01*
X387Y304D02*
X393Y304D01*
X1200Y304D02*
X1206Y304D01*
X1217Y304D02*
X1223Y304D01*
X340Y303D02*
X346Y303D01*
X363Y303D02*
X369Y303D01*
X387Y303D02*
X393Y303D01*
X1200Y303D02*
X1206Y303D01*
X1217Y303D02*
X1223Y303D01*
X340Y302D02*
X346Y302D01*
X363Y302D02*
X369Y302D01*
X387Y302D02*
X393Y302D01*
X1200Y302D02*
X1206Y302D01*
X1217Y302D02*
X1223Y302D01*
X340Y301D02*
X346Y301D01*
X363Y301D02*
X369Y301D01*
X387Y301D02*
X393Y301D01*
X1200Y301D02*
X1206Y301D01*
X1217Y301D02*
X1223Y301D01*
X340Y300D02*
X346Y300D01*
X363Y300D02*
X369Y300D01*
X387Y300D02*
X393Y300D01*
X1200Y300D02*
X1206Y300D01*
X1217Y300D02*
X1223Y300D01*
X340Y299D02*
X369Y299D01*
X387Y299D02*
X393Y299D01*
X1200Y299D02*
X1206Y299D01*
X1217Y299D02*
X1223Y299D01*
X340Y298D02*
X369Y298D01*
X387Y298D02*
X393Y298D01*
X1200Y298D02*
X1206Y298D01*
X1217Y298D02*
X1223Y298D01*
X340Y297D02*
X369Y297D01*
X387Y297D02*
X393Y297D01*
X1200Y297D02*
X1206Y297D01*
X1217Y297D02*
X1223Y297D01*
X340Y296D02*
X369Y296D01*
X387Y296D02*
X393Y296D01*
X1200Y296D02*
X1206Y296D01*
X1217Y296D02*
X1223Y296D01*
X340Y295D02*
X369Y295D01*
X387Y295D02*
X393Y295D01*
X1200Y295D02*
X1206Y295D01*
X1217Y295D02*
X1223Y295D01*
X340Y294D02*
X369Y294D01*
X387Y294D02*
X393Y294D01*
X1200Y294D02*
X1206Y294D01*
X1217Y294D02*
X1223Y294D01*
X342Y293D02*
X369Y293D01*
X387Y293D02*
X393Y293D01*
X1200Y293D02*
X1223Y293D01*
X363Y292D02*
X393Y292D01*
X1200Y292D02*
X1223Y292D01*
X363Y291D02*
X393Y291D01*
X1200Y291D02*
X1223Y291D01*
X364Y290D02*
X392Y290D01*
X1200Y290D02*
X1223Y290D01*
X364Y289D02*
X392Y289D01*
X1200Y289D02*
X1223Y289D01*
X365Y288D02*
X391Y288D01*
X1201Y288D02*
X1222Y288D01*
X366Y287D02*
X390Y287D01*
X1203Y287D02*
X1220Y287D01*
X369Y286D02*
X387Y286D01*
X1201Y267D02*
X1247Y267D01*
X341Y266D02*
X386Y266D01*
X1200Y266D02*
X1248Y266D01*
X340Y265D02*
X388Y265D01*
X1200Y265D02*
X1249Y265D01*
X340Y264D02*
X389Y264D01*
X1200Y264D02*
X1250Y264D01*
X340Y263D02*
X390Y263D01*
X1200Y263D02*
X1251Y263D01*
X340Y262D02*
X391Y262D01*
X1201Y262D02*
X1252Y262D01*
X340Y261D02*
X392Y261D01*
X1202Y261D02*
X1252Y261D01*
X342Y260D02*
X392Y260D01*
X1246Y260D02*
X1252Y260D01*
X385Y259D02*
X392Y259D01*
X1246Y259D02*
X1253Y259D01*
X386Y258D02*
X393Y258D01*
X1247Y258D02*
X1253Y258D01*
X387Y257D02*
X393Y257D01*
X1247Y257D02*
X1253Y257D01*
X387Y256D02*
X393Y256D01*
X1247Y256D02*
X1253Y256D01*
X387Y255D02*
X393Y255D01*
X1247Y255D02*
X1253Y255D01*
X387Y254D02*
X393Y254D01*
X1247Y254D02*
X1253Y254D01*
X387Y253D02*
X393Y253D01*
X1247Y253D02*
X1253Y253D01*
X387Y252D02*
X393Y252D01*
X1247Y252D02*
X1253Y252D01*
X387Y251D02*
X393Y251D01*
X1247Y251D02*
X1253Y251D01*
X387Y250D02*
X393Y250D01*
X1247Y250D02*
X1253Y250D01*
X387Y249D02*
X393Y249D01*
X1246Y249D02*
X1253Y249D01*
X386Y248D02*
X393Y248D01*
X1246Y248D02*
X1252Y248D01*
X386Y247D02*
X392Y247D01*
X1232Y247D02*
X1252Y247D01*
X372Y246D02*
X392Y246D01*
X1230Y246D02*
X1252Y246D01*
X370Y245D02*
X392Y245D01*
X1229Y245D02*
X1251Y245D01*
X369Y244D02*
X391Y244D01*
X1229Y244D02*
X1250Y244D01*
X369Y243D02*
X390Y243D01*
X1229Y243D02*
X1249Y243D01*
X369Y242D02*
X389Y242D01*
X1230Y242D02*
X1248Y242D01*
X369Y241D02*
X388Y241D01*
X1231Y241D02*
X1246Y241D01*
X370Y240D02*
X387Y240D01*
X1060Y165D02*
X1063Y165D01*
X1086Y165D02*
X1104Y165D01*
X1138Y165D02*
X1165Y165D01*
X1059Y164D02*
X1064Y164D01*
X1085Y164D02*
X1104Y164D01*
X1137Y164D02*
X1166Y164D01*
X1058Y163D02*
X1064Y163D01*
X1085Y163D02*
X1104Y163D01*
X1136Y163D02*
X1167Y163D01*
X1058Y162D02*
X1064Y162D01*
X1085Y162D02*
X1104Y162D01*
X1135Y162D02*
X1167Y162D01*
X1058Y161D02*
X1064Y161D01*
X1085Y161D02*
X1104Y161D01*
X1135Y161D02*
X1168Y161D01*
X1058Y160D02*
X1064Y160D01*
X1085Y160D02*
X1104Y160D01*
X1135Y160D02*
X1168Y160D01*
X1058Y159D02*
X1064Y159D01*
X1087Y159D02*
X1104Y159D01*
X1135Y159D02*
X1168Y159D01*
X1058Y158D02*
X1064Y158D01*
X1098Y158D02*
X1104Y158D01*
X1135Y158D02*
X1141Y158D01*
X1162Y158D02*
X1168Y158D01*
X1058Y157D02*
X1064Y157D01*
X1098Y157D02*
X1104Y157D01*
X1135Y157D02*
X1141Y157D01*
X1162Y157D02*
X1168Y157D01*
X1058Y156D02*
X1064Y156D01*
X1098Y156D02*
X1104Y156D01*
X1135Y156D02*
X1141Y156D01*
X1162Y156D02*
X1168Y156D01*
X1058Y155D02*
X1064Y155D01*
X1098Y155D02*
X1104Y155D01*
X1135Y155D02*
X1141Y155D01*
X1162Y155D02*
X1168Y155D01*
X1058Y154D02*
X1064Y154D01*
X1098Y154D02*
X1104Y154D01*
X1135Y154D02*
X1141Y154D01*
X1162Y154D02*
X1168Y154D01*
X1058Y153D02*
X1064Y153D01*
X1098Y153D02*
X1104Y153D01*
X1135Y153D02*
X1141Y153D01*
X1162Y153D02*
X1168Y153D01*
X1058Y152D02*
X1064Y152D01*
X1098Y152D02*
X1104Y152D01*
X1135Y152D02*
X1141Y152D01*
X1162Y152D02*
X1168Y152D01*
X1058Y151D02*
X1064Y151D01*
X1098Y151D02*
X1104Y151D01*
X1135Y151D02*
X1141Y151D01*
X1162Y151D02*
X1168Y151D01*
X1058Y150D02*
X1064Y150D01*
X1098Y150D02*
X1104Y150D01*
X1135Y150D02*
X1141Y150D01*
X1162Y150D02*
X1168Y150D01*
X1058Y149D02*
X1064Y149D01*
X1098Y149D02*
X1104Y149D01*
X1135Y149D02*
X1141Y149D01*
X1162Y149D02*
X1168Y149D01*
X1058Y148D02*
X1064Y148D01*
X1098Y148D02*
X1104Y148D01*
X1135Y148D02*
X1141Y148D01*
X1162Y148D02*
X1168Y148D01*
X1058Y147D02*
X1064Y147D01*
X1098Y147D02*
X1104Y147D01*
X1135Y147D02*
X1141Y147D01*
X1162Y147D02*
X1168Y147D01*
X1058Y146D02*
X1064Y146D01*
X1098Y146D02*
X1104Y146D01*
X1135Y146D02*
X1141Y146D01*
X1162Y146D02*
X1168Y146D01*
X1058Y145D02*
X1064Y145D01*
X1098Y145D02*
X1104Y145D01*
X1135Y145D02*
X1141Y145D01*
X1162Y145D02*
X1168Y145D01*
X1058Y144D02*
X1064Y144D01*
X1098Y144D02*
X1104Y144D01*
X1135Y144D02*
X1141Y144D01*
X1162Y144D02*
X1168Y144D01*
X1058Y143D02*
X1064Y143D01*
X1098Y143D02*
X1104Y143D01*
X1135Y143D02*
X1141Y143D01*
X1162Y143D02*
X1168Y143D01*
X1058Y142D02*
X1064Y142D01*
X1098Y142D02*
X1104Y142D01*
X1135Y142D02*
X1141Y142D01*
X1162Y142D02*
X1168Y142D01*
X1058Y141D02*
X1064Y141D01*
X1098Y141D02*
X1104Y141D01*
X1135Y141D02*
X1141Y141D01*
X1162Y141D02*
X1168Y141D01*
X1058Y140D02*
X1064Y140D01*
X1098Y140D02*
X1104Y140D01*
X1135Y140D02*
X1141Y140D01*
X1162Y140D02*
X1168Y140D01*
X1058Y139D02*
X1064Y139D01*
X1098Y139D02*
X1104Y139D01*
X1135Y139D02*
X1141Y139D01*
X1162Y139D02*
X1168Y139D01*
X1058Y138D02*
X1064Y138D01*
X1098Y138D02*
X1104Y138D01*
X1135Y138D02*
X1141Y138D01*
X1162Y138D02*
X1168Y138D01*
X1058Y137D02*
X1064Y137D01*
X1098Y137D02*
X1104Y137D01*
X1135Y137D02*
X1141Y137D01*
X1162Y137D02*
X1168Y137D01*
X1039Y136D02*
X1042Y136D01*
X1058Y136D02*
X1064Y136D01*
X1098Y136D02*
X1104Y136D01*
X1114Y136D02*
X1116Y136D01*
X1135Y136D02*
X1141Y136D01*
X1162Y136D02*
X1168Y136D01*
X1038Y135D02*
X1043Y135D01*
X1058Y135D02*
X1064Y135D01*
X1098Y135D02*
X1104Y135D01*
X1113Y135D02*
X1117Y135D01*
X1135Y135D02*
X1141Y135D01*
X1162Y135D02*
X1168Y135D01*
X1038Y134D02*
X1043Y134D01*
X1058Y134D02*
X1064Y134D01*
X1098Y134D02*
X1104Y134D01*
X1112Y134D02*
X1118Y134D01*
X1135Y134D02*
X1141Y134D01*
X1162Y134D02*
X1168Y134D01*
X1038Y133D02*
X1044Y133D01*
X1058Y133D02*
X1064Y133D01*
X1098Y133D02*
X1104Y133D01*
X1112Y133D02*
X1118Y133D01*
X1135Y133D02*
X1141Y133D01*
X1162Y133D02*
X1168Y133D01*
X1038Y132D02*
X1044Y132D01*
X1058Y132D02*
X1064Y132D01*
X1098Y132D02*
X1104Y132D01*
X1112Y132D02*
X1118Y132D01*
X1135Y132D02*
X1141Y132D01*
X1162Y132D02*
X1168Y132D01*
X1038Y131D02*
X1044Y131D01*
X1058Y131D02*
X1064Y131D01*
X1098Y131D02*
X1104Y131D01*
X1112Y131D02*
X1118Y131D01*
X1135Y131D02*
X1141Y131D01*
X1162Y131D02*
X1168Y131D01*
X1038Y130D02*
X1044Y130D01*
X1058Y130D02*
X1064Y130D01*
X1098Y130D02*
X1104Y130D01*
X1112Y130D02*
X1118Y130D01*
X1135Y130D02*
X1141Y130D01*
X1162Y130D02*
X1168Y130D01*
X1038Y129D02*
X1044Y129D01*
X1058Y129D02*
X1064Y129D01*
X1098Y129D02*
X1104Y129D01*
X1112Y129D02*
X1118Y129D01*
X1135Y129D02*
X1141Y129D01*
X1162Y129D02*
X1168Y129D01*
X1038Y128D02*
X1044Y128D01*
X1058Y128D02*
X1064Y128D01*
X1098Y128D02*
X1104Y128D01*
X1112Y128D02*
X1118Y128D01*
X1135Y128D02*
X1141Y128D01*
X1162Y128D02*
X1168Y128D01*
X1038Y127D02*
X1044Y127D01*
X1058Y127D02*
X1064Y127D01*
X1098Y127D02*
X1104Y127D01*
X1112Y127D02*
X1118Y127D01*
X1135Y127D02*
X1141Y127D01*
X1162Y127D02*
X1168Y127D01*
X1038Y126D02*
X1044Y126D01*
X1058Y126D02*
X1064Y126D01*
X1098Y126D02*
X1104Y126D01*
X1112Y126D02*
X1118Y126D01*
X1135Y126D02*
X1141Y126D01*
X1162Y126D02*
X1168Y126D01*
X1038Y125D02*
X1044Y125D01*
X1058Y125D02*
X1064Y125D01*
X1098Y125D02*
X1104Y125D01*
X1112Y125D02*
X1118Y125D01*
X1135Y125D02*
X1141Y125D01*
X1162Y125D02*
X1168Y125D01*
X1038Y124D02*
X1044Y124D01*
X1058Y124D02*
X1064Y124D01*
X1098Y124D02*
X1104Y124D01*
X1112Y124D02*
X1118Y124D01*
X1135Y124D02*
X1141Y124D01*
X1162Y124D02*
X1168Y124D01*
X1038Y123D02*
X1044Y123D01*
X1058Y123D02*
X1064Y123D01*
X1098Y123D02*
X1104Y123D01*
X1112Y123D02*
X1118Y123D01*
X1135Y123D02*
X1141Y123D01*
X1162Y123D02*
X1168Y123D01*
X1038Y122D02*
X1044Y122D01*
X1058Y122D02*
X1064Y122D01*
X1098Y122D02*
X1104Y122D01*
X1112Y122D02*
X1118Y122D01*
X1135Y122D02*
X1141Y122D01*
X1162Y122D02*
X1168Y122D01*
X1038Y121D02*
X1044Y121D01*
X1058Y121D02*
X1064Y121D01*
X1098Y121D02*
X1104Y121D01*
X1112Y121D02*
X1118Y121D01*
X1135Y121D02*
X1141Y121D01*
X1162Y121D02*
X1168Y121D01*
X1038Y120D02*
X1045Y120D01*
X1057Y120D02*
X1064Y120D01*
X1098Y120D02*
X1104Y120D01*
X1112Y120D02*
X1118Y120D01*
X1135Y120D02*
X1141Y120D01*
X1162Y120D02*
X1168Y120D01*
X1038Y119D02*
X1046Y119D01*
X1056Y119D02*
X1064Y119D01*
X1098Y119D02*
X1104Y119D01*
X1112Y119D02*
X1118Y119D01*
X1135Y119D02*
X1141Y119D01*
X1162Y119D02*
X1168Y119D01*
X1039Y118D02*
X1063Y118D01*
X1086Y118D02*
X1118Y118D01*
X1135Y118D02*
X1168Y118D01*
X1039Y117D02*
X1063Y117D01*
X1085Y117D02*
X1118Y117D01*
X1135Y117D02*
X1168Y117D01*
X1040Y116D02*
X1062Y116D01*
X1085Y116D02*
X1118Y116D01*
X1135Y116D02*
X1168Y116D01*
X1041Y115D02*
X1061Y115D01*
X1084Y115D02*
X1118Y115D01*
X1136Y115D02*
X1167Y115D01*
X1042Y114D02*
X1060Y114D01*
X1085Y114D02*
X1118Y114D01*
X1137Y114D02*
X1166Y114D01*
X1043Y113D02*
X1059Y113D01*
X1085Y113D02*
X1117Y113D01*
X1138Y113D02*
X1165Y113D01*
X1046Y112D02*
X1056Y112D01*
X1087Y112D02*
X1116Y112D01*
X1140Y112D02*
X1163Y112D01*
D02*
G04 End of Silk1*
M02*